# xmcd
#
# Track frame offsets:
#	150
#	17475
#	29560
#	44985
#	57088
#	72500
#	85930
#	119420
#
# Disc length: 1747 seconds
#
# Revision: 0
# Processed by: cddbd v1.4PL0 Copyright (c) Steve Scherf et al.
# Submitted via: audiograbber 1.81.03
#
DISCID=7006d108
DTITLE=Piet Violin - Squaredance Classic's
DYEAR=1992
DGENRE=Country
TTITLE0=Piet Violin - Ragtime Annie
TTITLE1=Piet Violin - Cajun Fiddle
TTITLE2=Piet Violin - Cotton Eyed Joe
TTITLE3=Piet Violin - Sweet Texas Scotish
TTITLE4=Piet Violin - Squaredance
TTITLE5=Piet Violin - Devils Dream
TTITLE6=Piet Violin - Orange Blossom Special
TTITLE7=Piet Violin - Mr. Bo Jangles
EXTD=Produced by Peter Behrendt
EXTT0=Traditional
EXTT1=Traditional
EXTT2=Traditional
EXTT3=Traditional
EXTT4=Traditional
EXTT5=Traditional
EXTT6=Erwin T. Rouse\nMCA Music inc., N.Y.
EXTT7=Jerry Jeff Walker\nNeue Welt Musikverlag GmbH München 
PLAYORDER=
